<svg width="0" height="0" class="hidden">
  <symbol xmlns="http://www.w3.org/2000/svg" viewBox="0 0 24 24" id="heart">
    <path d="M12.0009 3.65429C14.5848 1.37244 18.5777 1.44818 21.0669 3.90098C23.5551 6.35487 23.6409 10.2629 21.3265 12.812L11.9987 22L2.67308 12.812C0.358718 10.2629 0.445617 6.34837 2.93267 3.90098C5.42412 1.45143 9.40935 1.3692 12.0009 3.65429ZM19.5094 5.42979C17.8594 3.80469 15.1974 3.73869 13.4705 5.26425L12.002 6.56044L10.5324 5.26533C8.79996 3.73761 6.14351 3.80469 4.48914 5.43195C2.85017 7.04407 2.76767 9.62455 4.27795 11.3297L11.9998 18.937L19.7217 11.3308C21.233 9.62455 21.1505 7.04732 19.5094 5.42979Z"></path>
  </symbol>
  <symbol xmlns="http://www.w3.org/2000/svg" viewBox="0 0 24 24" id="cart">
    <path d="M3.60005 5.08602L0 1.54536L1.57079 0L5.16972 3.54176H22.0898C22.2629 3.54175 22.4335 3.58153 22.5881 3.65793C22.7427 3.73432 22.8771 3.84522 22.9804 3.98177C23.0837 4.11832 23.1531 4.27674 23.1832 4.44439C23.2132 4.61203 23.203 4.78426 23.1533 4.94732L20.4891 13.6843C20.4205 13.9094 20.28 14.1067 20.0885 14.247C19.8969 14.3873 19.6644 14.463 19.4256 14.463H5.82024V16.6473H18.0313V18.8315H4.71014C4.41573 18.8315 4.13337 18.7164 3.92519 18.5116C3.717 18.3068 3.60005 18.029 3.60005 17.7394V5.08602ZM5.82024 5.72601V12.2788H18.5997L20.5979 5.72601H5.82024ZM5.26519 23.2C4.82357 23.2 4.40003 23.0274 4.08776 22.7202C3.77548 22.413 3.60005 21.9963 3.60005 21.5618C3.60005 21.1273 3.77548 20.7107 4.08776 20.4034C4.40003 20.0962 4.82357 19.9236 5.26519 19.9236C5.70682 19.9236 6.13035 20.0962 6.44263 20.4034C6.7549 20.7107 6.93034 21.1273 6.93034 21.5618C6.93034 21.9963 6.7549 22.413 6.44263 22.7202C6.13035 23.0274 5.70682 23.2 5.26519 23.2ZM18.5864 23.2C18.1447 23.2 17.7212 23.0274 17.4089 22.7202C17.0966 22.413 16.9212 21.9963 16.9212 21.5618C16.9212 21.1273 17.0966 20.7107 17.4089 20.4034C17.7212 20.0962 18.1447 19.9236 18.5864 19.9236C19.028 19.9236 19.4515 20.0962 19.7638 20.4034C20.0761 20.7107 20.2515 21.1273 20.2515 21.5618C20.2515 21.9963 20.0761 22.413 19.7638 22.7202C19.4515 23.0274 19.028 23.2 18.5864 23.2Z"></path>
  </symbol>
  <symbol xmlns="http://www.w3.org/2000/svg" viewBox="0 0 32 32" id="tg">
    <path d="M16.05 28.09C19.2432 28.09 22.3056 26.8215 24.5636 24.5636C26.8215 22.3056 28.09 19.2432 28.09 16.05C28.09 12.8568 26.8215 9.79437 24.5636 7.53643C22.3056 5.2785 19.2432 4.01 16.05 4.01C12.8568 4.01 9.79437 5.2785 7.53643 7.53643C5.2785 9.79437 4.01 12.8568 4.01 16.05C4.01 19.2432 5.2785 22.3056 7.53643 24.5636C9.79437 26.8215 12.8568 28.09 16.05 28.09ZM16.05 31.1C7.73789 31.1 1 24.3621 1 16.05C1 7.73789 7.73789 1 16.05 1C24.3621 1 31.1 7.73789 31.1 16.05C31.1 24.3621 24.3621 31.1 16.05 31.1ZM11.3695 17.8109L7.60996 16.6385C6.79726 16.3901 6.79275 15.8303 7.79207 15.4284L22.4402 9.76964C23.2906 9.42348 23.7722 9.86144 23.4967 10.9586L21.003 22.7277C20.8284 23.566 20.3242 23.7661 19.6244 23.3794L15.7851 20.5379L13.9957 22.2656C13.8121 22.4432 13.6631 22.5952 13.3801 22.6329C13.0987 22.672 12.8669 22.5877 12.6969 22.1212L11.3875 17.8003L11.3695 17.8124V17.8109Z"></path>
  </symbol>
  <symbol xmlns="http://www.w3.org/2000/svg" viewBox="0 0 32 32" id="vk">
    <path d="M1 8.99944C1 7.96133 1.57503 7.40157 2.7251 7.32015L7.15682 7.35068C7.45425 7.35068 7.65254 7.50334 7.75168 7.80867C8.20774 9.3353 8.71833 10.6533 9.28345 11.7626C9.84857 12.872 10.5872 14.1493 11.4993 15.5945C11.5786 15.7777 11.7075 15.8693 11.886 15.8693C12.0248 15.8693 12.1338 15.798 12.2131 15.6555L12.3024 15.3197L12.3321 10.0375C12.3321 9.67115 12.2478 9.42689 12.0793 9.30476C11.9108 9.18263 11.5985 9.09104 11.1424 9.02997C10.7855 8.96891 10.607 8.745 10.607 8.35826C10.607 8.27683 10.6169 8.21577 10.6368 8.17506C11.0532 6.85198 12.2429 6.19045 14.2059 6.19045L15.8715 6.15991C16.625 6.15991 17.2496 6.35329 17.7454 6.74003C18.2411 7.12678 18.4889 7.73743 18.4889 8.57198V15.5029C18.6277 15.6046 18.7566 15.6555 18.8756 15.6555C19.173 15.6555 19.4308 15.4723 19.6489 15.106C21.8301 11.9713 23.0099 9.8747 23.1883 8.81624C23.1883 8.79589 23.2082 8.745 23.2478 8.66358C23.3866 8.35826 23.6147 8.09364 23.9319 7.86973C24.2492 7.64583 24.5268 7.49317 24.7647 7.41175C24.844 7.37104 24.9333 7.35068 25.0324 7.35068H29.6426L29.94 7.38121C30.3366 7.38121 30.6439 7.57459 30.8621 7.96133C30.9414 8.08346 30.9959 8.21577 31.0256 8.35826C31.0554 8.50074 31.0752 8.64323 31.0851 8.78571C31.095 8.9282 31.1 9.00962 31.1 9.02997V9.2437C30.9612 10.0783 30.6092 10.9688 30.0441 11.9153C29.479 12.8618 28.7602 13.8846 27.8877 14.9838C27.0153 16.083 26.47 16.8056 26.2519 17.1516C26.0734 17.3959 25.9842 17.6198 25.9842 17.8233C25.9842 17.9862 26.0635 18.1694 26.2221 18.3729L30.5646 23.9909C30.8026 24.3166 30.9215 24.6728 30.9215 25.0596C30.9215 25.5277 30.7431 25.9145 30.3862 26.2198C30.0292 26.5251 29.6029 26.6981 29.1072 26.7388L28.6016 26.7694H24.0806C24.0608 26.7694 24.0211 26.7745 23.9617 26.7846C23.9022 26.7948 23.8625 26.7999 23.8427 26.7999C23.4065 26.7999 23 26.6065 22.6232 26.2198C22.4844 26.057 21.5525 24.856 19.8274 22.617C19.7282 22.4745 19.5894 22.3422 19.411 22.22C19.3317 22.5457 19.2276 23.0139 19.0987 23.6245C18.9698 24.2352 18.8756 24.6728 18.8161 24.9374L18.7269 25.4565C18.5286 26.1689 18.1122 26.5964 17.4777 26.7388L17.0613 26.7694H14.1464C12.5007 26.7694 10.8598 25.9959 9.22396 24.4489C7.58809 22.9019 6.11581 20.902 4.80711 18.4493C3.49842 15.9965 2.27895 13.1417 1.14872 9.88488C1.04957 9.62027 1 9.32512 1 8.99944ZM18.8756 16.9074C18.4592 16.9074 18.0824 16.7903 17.7454 16.5562C17.4083 16.3222 17.2397 16.0016 17.2397 15.5945V8.57198C17.2397 8.16488 17.1406 7.87482 16.9423 7.70181C16.744 7.52879 16.397 7.44228 15.9013 7.44228L14.2059 7.50334C13.3533 7.50334 12.7089 7.65601 12.2726 7.96133C13.1451 8.38879 13.5813 9.08086 13.5813 10.0375V15.4113C13.5417 15.9202 13.3434 16.3425 12.9865 16.6784C12.6295 17.0142 12.233 17.1822 11.7967 17.1822C11.2019 17.1822 10.7458 16.887 10.4286 16.2967C8.88192 13.8948 7.73185 11.6151 6.97836 9.45743L6.71067 8.66358L2.75484 8.63305C2.49707 8.63305 2.35331 8.64831 2.32357 8.67885C2.29382 8.70938 2.27895 8.79589 2.27895 8.93837C2.27895 9.12157 2.29878 9.31494 2.33844 9.51849L2.96304 11.2283C4.62866 15.6454 6.43803 19.1261 8.39116 21.6704C10.3443 24.2148 12.2627 25.487 14.1464 25.487H17.1208C17.2397 25.487 17.329 25.4514 17.3884 25.3801C17.4479 25.3089 17.4975 25.1715 17.5372 24.968L17.5966 24.6626L18.1618 21.9758C18.3204 21.6094 18.4592 21.3651 18.5782 21.243C18.7963 21.0191 19.0541 20.9071 19.3515 20.9071C19.8274 20.9071 20.3132 21.2023 20.8089 21.7926L23.3371 25.0901C23.4957 25.3547 23.6642 25.487 23.8427 25.487H28.7503C29.3452 25.487 29.6426 25.3343 29.6426 25.029C29.6426 24.9272 29.6128 24.8255 29.5534 24.7237L25.2406 19.1973C24.9035 18.7699 24.735 18.3119 24.735 17.8233C24.735 17.3348 24.8936 16.8667 25.2109 16.4188C25.4686 16.0117 25.9693 15.3349 26.7129 14.3884C27.4565 13.4419 28.1059 12.5565 28.6611 11.7321C29.2163 10.9077 29.5831 10.1597 29.7616 9.48796L29.8508 9.09104C29.831 9.05033 29.821 8.98417 29.821 8.89257C29.821 8.80098 29.8111 8.72465 29.7913 8.66358H25.1216C24.8242 8.78571 24.5863 8.96891 24.4078 9.21317L24.2293 9.79328C23.7336 11.1978 22.4348 13.3656 20.333 16.2967C19.9166 16.7038 19.4308 16.9074 18.8756 16.9074Z"></path>
  </symbol>
  <symbol xmlns="http://www.w3.org/2000/svg" viewBox="0 0 32 32" id="whatsapp">
    <path d="M8.90578 25.8235L9.9954 26.4601C11.8329 27.5317 13.9228 28.0943 16.05 28.09C18.4313 28.09 20.7591 27.3838 22.7391 26.0609C24.719 24.7379 26.2622 22.8575 27.1735 20.6575C28.0848 18.4575 28.3232 16.0366 27.8587 13.7011C27.3941 11.3656 26.2474 9.22025 24.5636 7.53643C22.8797 5.85261 20.7344 4.70591 18.3989 4.24134C16.0634 3.77678 13.6425 4.01521 11.4425 4.92649C9.24248 5.83777 7.36209 7.38096 6.03912 9.36093C4.71615 11.3409 4.01002 13.6687 4.01002 16.05C4.01002 18.2112 4.5774 20.2836 5.64144 22.1061L6.27655 23.1957L5.29378 26.8092L8.90578 25.8235ZM1.00604 31.1L3.0408 23.6231C1.70005 21.3248 0.99565 18.7108 1.00002 16.05C1.00002 7.73788 7.7379 1 16.05 1C24.3621 1 31.1 7.73788 31.1 16.05C31.1 24.3621 24.3621 31.1 16.05 31.1C13.3903 31.1043 10.7775 30.4004 8.47987 29.0607L1.00604 31.1ZM10.6185 8.98853C10.8201 8.97348 11.0233 8.97348 11.225 8.98251C11.3063 8.98853 11.3875 8.99757 11.4688 9.0066C11.7081 9.03368 11.9715 9.17967 12.0603 9.38134C12.5087 10.3987 12.9452 11.4236 13.3666 12.4515C13.4599 12.6803 13.4042 12.9738 13.2266 13.2597C13.1045 13.4531 12.9724 13.64 12.8308 13.8196C12.6608 14.0378 12.295 14.4381 12.295 14.4381C12.295 14.4381 12.146 14.6157 12.2032 14.837C12.2243 14.9212 12.2935 15.0431 12.3567 15.1455L12.4455 15.2885C12.8308 15.9311 13.3485 16.5828 13.9806 17.1968C14.1612 17.3714 14.3373 17.5505 14.527 17.7175C15.2313 18.3391 16.0289 18.8463 16.8898 19.2225L16.8973 19.2255C17.0252 19.2812 17.09 19.3113 17.2766 19.3911C17.3699 19.4302 17.4662 19.4648 17.564 19.4904C17.6651 19.5162 17.7716 19.5113 17.8699 19.4765C17.9683 19.4417 18.054 19.3784 18.1164 19.2948C19.206 17.9749 19.3053 17.8891 19.3144 17.8891V17.8921C19.3901 17.8215 19.48 17.7679 19.5781 17.735C19.6762 17.702 19.7803 17.6904 19.8832 17.701C19.9735 17.707 20.0653 17.7235 20.1496 17.7612C20.9488 18.1269 22.2566 18.6973 22.2566 18.6973L23.1325 19.0901C23.28 19.1608 23.414 19.3279 23.4185 19.4889C23.4245 19.5897 23.4335 19.7523 23.3989 20.0503C23.3508 20.4401 23.2334 20.9081 23.116 21.1534C23.0356 21.3209 22.9289 21.4743 22.7999 21.608C22.6481 21.7674 22.4818 21.9125 22.3033 22.0414C22.2415 22.0878 22.1788 22.133 22.1152 22.1768C21.928 22.2956 21.7356 22.4061 21.5387 22.5079C21.1513 22.7138 20.7233 22.8319 20.2851 22.8541C20.0067 22.8691 19.7282 22.8902 19.4483 22.8752C19.4363 22.8752 18.5935 22.7442 18.5935 22.7442C16.4537 22.1814 14.4749 21.1271 12.8143 19.665C12.4741 19.3655 12.1596 19.0434 11.8375 18.7229C10.4981 17.3909 9.48671 15.9537 8.87267 14.5962C8.55838 13.9299 8.38861 13.2046 8.37452 12.4681C8.36831 11.5543 8.66701 10.6646 9.22334 9.93969C9.3332 9.79822 9.43704 9.65073 9.61614 9.48067C9.80727 9.30007 9.92767 9.20375 10.0586 9.13753C10.2327 9.05029 10.4226 8.9991 10.617 8.98703L10.6185 8.98853Z"></path>
  </symbol>
  <symbol xmlns="http://www.w3.org/2000/svg" viewBox="0 0 21 17" id="del">
    <path d="M15.8848 3.4H20.8667V5.1H18.874V16.15C18.874 16.3754 18.769 16.5916 18.5821 16.751C18.3953 16.9104 18.1418 17 17.8776 17H3.92813C3.66387 17 3.41044 16.9104 3.22358 16.751C3.03672 16.5916 2.93174 16.3754 2.93174 16.15V5.1H0.938965V3.4H5.92091V0.85C5.92091 0.624566 6.02589 0.408365 6.21275 0.248959C6.3996 0.0895533 6.65304 0 6.9173 0H14.8884C15.1527 0 15.4061 0.0895533 15.593 0.248959C15.7798 0.408365 15.8848 0.624566 15.8848 0.85V3.4ZM16.8812 5.1H4.92452V15.3H16.8812V5.1ZM12.3117 10.2L14.0734 11.7028L12.6645 12.9047L10.9029 11.4019L9.14124 12.9047L7.73234 11.7028L9.49396 10.2L7.73234 8.6972L9.14124 7.4953L10.9029 8.9981L12.6645 7.4953L14.0734 8.6972L12.3117 10.2ZM7.91369 1.7V3.4H13.892V1.7H7.91369Z"/>
  </symbol>
  <symbol xmlns="http://www.w3.org/2000/svg" viewBox="0 0 14 14" id="minus">
    <path d="M0 6H14V8H0V6Z"/>
  </symbol>
  <symbol xmlns="http://www.w3.org/2000/svg" viewBox="0 0 14 14" id="plus">
    <path d="M6 6V0H8V6H14V8H8V14H6V8H0V6H6Z"/>
  </symbol>
</svg>